<?xml version="1.0" encoding="UTF-8" standalone="no"?>
<!-- Created with Inkscape (http://www.inkscape.org/) -->

<svg
   xmlns:dc="http://purl.org/dc/elements/1.1/"
   xmlns:cc="http://creativecommons.org/ns#"
   xmlns:rdf="http://www.w3.org/1999/02/22-rdf-syntax-ns#"
   xmlns:svg="http://www.w3.org/2000/svg"
   xmlns="http://www.w3.org/2000/svg"
   xmlns:xlink="http://www.w3.org/1999/xlink"
   xmlns:sodipodi="http://sodipodi.sourceforge.net/DTD/sodipodi-0.dtd"
   xmlns:inkscape="http://www.inkscape.org/namespaces/inkscape"
   width="679.28125"
   height="679.28125"
   id="svg2"
   version="1.1"
   inkscape:version="0.48+devel r10124"
   sodipodi:docname="image-missing.svg">
  <defs
     id="defs4">
    <inkscape:path-effect
       effect="spiro"
       id="path-effect874"
       is_visible="true" />
    <linearGradient
       id="linearGradient821">
      <stop
         style="stop-color:#ffffff;stop-opacity:0;"
         offset="0"
         id="stop823" />
      <stop
         id="stop840"
         offset="0.37018949"
         style="stop-color:#ffffff;stop-opacity:0.09756097;" />
      <stop
         style="stop-color:#ffffff;stop-opacity:0.50362319"
         offset="1"
         id="stop825" />
    </linearGradient>
    <linearGradient
       id="linearGradient798">
      <stop
         style="stop-color:#acb2bc;stop-opacity:1;"
         offset="0"
         id="stop800" />
      <stop
         style="stop-color:#58657c;stop-opacity:1;"
         offset="1"
         id="stop802" />
    </linearGradient>
    <linearGradient
       id="linearGradient783">
      <stop
         style="stop-color:#505050;stop-opacity:1;"
         offset="0"
         id="stop785" />
      <stop
         style="stop-color:#2a2a2a;stop-opacity:1;"
         offset="1"
         id="stop787" />
    </linearGradient>
    <radialGradient
       inkscape:collect="always"
       xlink:href="#linearGradient783"
       id="radialGradient789"
       cx="357.14285"
       cy="198.07649"
       fx="357.14285"
       fy="198.07649"
       r="337.14285"
       gradientUnits="userSpaceOnUse" />
    <radialGradient
       inkscape:collect="always"
       xlink:href="#linearGradient798"
       id="radialGradient804"
       cx="554.28571"
       cy="287.37506"
       fx="554.28571"
       fy="287.37506"
       r="148.21461"
       gradientTransform="matrix(-2.7194773,2.7194777,-2.5389414,-2.5389415,2791.2816,-579.66261)"
       gradientUnits="userSpaceOnUse" />
    <radialGradient
       inkscape:collect="always"
       xlink:href="#linearGradient798"
       id="radialGradient812"
       cx="554.28571"
       cy="287.1788"
       fx="554.28571"
       fy="287.17877"
       r="148.71461"
       gradientTransform="matrix(-2.7103343,2.7103345,-2.5304058,-2.5304056,2783.2642,-577.54424)"
       gradientUnits="userSpaceOnUse" />
    <radialGradient
       inkscape:collect="always"
       xlink:href="#linearGradient821"
       id="radialGradient834"
       gradientUnits="userSpaceOnUse"
       cx="657.11487"
       cy="847.23999"
       fx="657.11487"
       fy="847.23999"
       r="337.14285"
       gradientTransform="matrix(1.5585695,-0.92740736,0.83490821,1.4031187,-1100.0981,361.56857)" />
    <filter
       inkscape:collect="always"
       id="filter854"
       color-interpolation-filters="sRGB">
      <feGaussianBlur
         inkscape:collect="always"
         stdDeviation="8.0418041"
         id="feGaussianBlur856" />
    </filter>
    <radialGradient
       inkscape:collect="always"
       xlink:href="#linearGradient3069"
       id="radialGradient3077"
       cx="311.16309"
       cy="352.64078"
       fx="311.16309"
       fy="352.64078"
       r="114.65639"
       gradientTransform="matrix(-0.37172337,0.12188712,-0.05640209,-0.17201144,324.36323,364.72434)"
       gradientUnits="userSpaceOnUse" />
    <linearGradient
       id="linearGradient3069">
      <stop
         style="stop-color:#ffffff;stop-opacity:1;"
         offset="0"
         id="stop3071" />
      <stop
         id="stop3943"
         offset="0.36170211"
         style="stop-color:#9bcb6e;stop-opacity:1;" />
      <stop
         style="stop-color:#4e9a06;stop-opacity:1;"
         offset="1"
         id="stop3073" />
    </linearGradient>
    <filter
       color-interpolation-filters="sRGB"
       inkscape:collect="always"
       id="filter4025"
       x="-0.17569025"
       width="1.3513805"
       y="-0.59339654"
       height="2.1867931">
      <feGaussianBlur
         inkscape:collect="always"
         stdDeviation="11.163651"
         id="feGaussianBlur4027" />
    </filter>
    <filter
       color-interpolation-filters="sRGB"
       inkscape:collect="always"
       id="filter3877-1-5"
       x="-0.23436569"
       width="1.4687314"
       y="-0.12665722"
       height="1.2533144">
      <feGaussianBlur
         inkscape:collect="always"
         stdDeviation="3.6650878"
         id="feGaussianBlur3879-1-0" />
    </filter>
    <filter
       color-interpolation-filters="sRGB"
       inkscape:collect="always"
       id="filter3877-9"
       x="-0.23436569"
       width="1.4687314"
       y="-0.12665722"
       height="1.2533144">
      <feGaussianBlur
         inkscape:collect="always"
         stdDeviation="3.6650878"
         id="feGaussianBlur3879-7" />
    </filter>
    <filter
       color-interpolation-filters="sRGB"
       inkscape:collect="always"
       id="filter3867-3"
       x="-0.078875169"
       width="1.1577502"
       y="-0.14520203"
       height="1.290404">
      <feGaussianBlur
         inkscape:collect="always"
         stdDeviation="3.1468199"
         id="feGaussianBlur3869-5" />
    </filter>
    <filter
       color-interpolation-filters="sRGB"
       inkscape:collect="always"
       id="filter3861-0"
       x="-0.28075197"
       width="1.561504"
       y="-0.065840855"
       height="1.1316817">
      <feGaussianBlur
         inkscape:collect="always"
         stdDeviation="6.0892352"
         id="feGaussianBlur3863-5" />
    </filter>
    <radialGradient
       inkscape:collect="always"
       xlink:href="#linearGradient3069-5"
       id="radialGradient3077-5"
       cx="311.16309"
       cy="352.64078"
       fx="311.16309"
       fy="352.64078"
       r="114.65639"
       gradientTransform="matrix(-0.37172337,0.12188712,-0.05640209,-0.17201144,324.36323,364.72434)"
       gradientUnits="userSpaceOnUse" />
    <linearGradient
       id="linearGradient3069-5">
      <stop
         style="stop-color:#e9fdd6;stop-opacity:1;"
         offset="0"
         id="stop3071-3" />
      <stop
         id="stop3943-2"
         offset="0.36170211"
         style="stop-color:#9bcb6e;stop-opacity:1;" />
      <stop
         style="stop-color:#4e9a06;stop-opacity:1;"
         offset="1"
         id="stop3073-9" />
    </linearGradient>
    <radialGradient
       r="114.65639"
       fy="352.64078"
       fx="311.16309"
       cy="352.64078"
       cx="311.16309"
       gradientTransform="matrix(-0.37172337,0.12188712,-0.05640209,-0.17201144,1063.2745,560.37778)"
       gradientUnits="userSpaceOnUse"
       id="radialGradient161"
       xlink:href="#linearGradient3069-5"
       inkscape:collect="always" />
    <radialGradient
       inkscape:collect="always"
       xlink:href="#linearGradient798"
       id="radialGradient1034"
       cx="991.01984"
       cy="368.78784"
       fx="991.01984"
       fy="368.78784"
       r="75.702751"
       gradientTransform="matrix(1,0,0,1.7516422,0,-277.19652)"
       gradientUnits="userSpaceOnUse" />
    <radialGradient
       inkscape:collect="always"
       xlink:href="#linearGradient798"
       id="radialGradient1038"
       gradientUnits="userSpaceOnUse"
       gradientTransform="matrix(-0.37172337,0.12188712,-0.05640209,-0.17201144,1063.2745,560.37778)"
       cx="311.16309"
       cy="352.64078"
       fx="311.16309"
       fy="352.64078"
       r="114.65639" />
    <radialGradient
       inkscape:collect="always"
       xlink:href="#linearGradient798"
       id="radialGradient1057"
       gradientUnits="userSpaceOnUse"
       gradientTransform="matrix(-2.7194773,2.7194777,-2.5389414,-2.5389415,2791.2816,-579.66261)"
       cx="554.28571"
       cy="287.37506"
       fx="554.28571"
       fy="287.37506"
       r="148.21461" />
  </defs>
  <sodipodi:namedview
     id="base"
     pagecolor="#ffffff"
     bordercolor="#666666"
     borderopacity="1.0"
     inkscape:pageopacity="0.0"
     inkscape:pageshadow="2"
     inkscape:zoom="0.7"
     inkscape:cx="424.26143"
     inkscape:cy="325.98411"
     inkscape:document-units="px"
     inkscape:current-layer="layer1"
     showgrid="false"
     fit-margin-top="0"
     fit-margin-left="0"
     fit-margin-right="0"
     fit-margin-bottom="0"
     inkscape:window-width="1180"
     inkscape:window-height="850"
     inkscape:window-x="3"
     inkscape:window-y="0"
     inkscape:window-maximized="0" />
  <metadata
     id="metadata7">
    <rdf:RDF>
      <cc:Work
         rdf:about="">
        <dc:format>image/svg+xml</dc:format>
        <dc:type
           rdf:resource="http://purl.org/dc/dcmitype/StillImage" />
        <dc:title />
      </cc:Work>
    </rdf:RDF>
  </metadata>
  <g
     inkscape:label="Calque 1"
     inkscape:groupmode="layer"
     id="layer1"
     transform="translate(-37.5,-104.15625)">
    <rect
       style="color:#000000;fill:url(#radialGradient789);fill-opacity:1;fill-rule:nonzero;stroke:#000000;stroke-width:5;stroke-miterlimit:4;stroke-opacity:1;stroke-dasharray:none;marker:none;visibility:visible;display:inline;overflow:visible;enable-background:accumulate"
       id="rect10"
       width="674.28571"
       height="674.28571"
       x="39.999992"
       y="106.6479" />
    <path
       inkscape:connector-curvature="0"
       id="path846"
       d="m 345.29846,228.15683 c -2.43901,-0.0782 -4.46253,0.49205 -5.65602,1.6968 -6.24846,6.24847 -13.98772,30.14614 -12.72605,58.70144 2.24935,50.90984 20.97978,126.52179 58.94387,238.07812 5.7262,16.82633 10.38284,31.26972 10.38284,31.26972 0,0.37187 -3.69161,-0.98525 -8.20124,-3.03 -16.67121,-7.55909 -27.6993,-9.62073 -51.91424,-9.65564 -23.96141,-0.0345 -31.77108,1.26215 -51.2274,8.36283 -40.98347,14.95711 -64.80333,46.35685 -57.52982,75.83109 3.76899,15.27304 11.12173,25.18511 26.0177,35.14814 14.36212,9.60597 27.68153,13.9188 54.29781,17.53367 2.13313,0.28964 9.81823,0.25431 17.04887,-0.0808 48.32708,-2.23977 86.87424,-24.59459 102.77804,-59.63063 7.08563,-15.60965 6.31574,-31.45225 -2.42401,-51.3486 0,0 -14.012,-36.64795 -21.73528,-78.78031 -3.25229,-17.74198 -7.38214,-38.9763 -9.17084,-47.18738 -10.61568,-48.73149 -12.42559,-58.53036 -16.68528,-89.16315 -2.31435,-16.64329 -9.64271,-82.32623 -9.65563,-86.53714 -0.008,-2.69704 0.81718,-2.24189 8.03963,4.32282 18.44508,16.7653 53.32435,39.54852 83.06272,54.25741 23.46437,11.60572 31.67372,21.52484 31.67372,38.25894 0,16.47944 -11.28651,38.99773 -38.38015,76.51791 -4.48854,6.21587 -8.16083,11.67182 -8.16083,12.12004 0,0.44825 5.09042,0.5438 11.31204,0.2424 10.27944,-0.49797 11.96112,-0.93935 18.42248,-5.09042 27.64658,-17.76141 53.5345,-70.25163 47.91458,-97.12197 -3.00575,-14.37134 -19.15487,-32.8258 -42.09696,-48.15699 -7.82147,-5.22676 -31.09197,-18.20172 -51.71219,-28.80532 -50.93625,-26.19308 -51.35206,-35.55808 -74.45753,-45.69257 -2.88336,-1.2647 -5.72183,-1.98217 -8.16083,-2.06041 z"
       style="fill:#000000;fill-opacity:1;stroke:url(#radialGradient1057);filter:url(#filter854)" />
    <path
       style="fill:url(#radialGradient812);fill-opacity:1;stroke:url(#radialGradient804)"
       d="m 345.29846,228.15683 c -2.43901,-0.0782 -4.46253,0.49205 -5.65602,1.6968 -6.24846,6.24847 -13.98772,30.14614 -12.72605,58.70144 2.24935,50.90984 20.97978,126.52179 58.94387,238.07812 5.7262,16.82633 10.38284,31.26972 10.38284,31.26972 0,0.37187 -3.69161,-0.98525 -8.20124,-3.03 -16.67121,-7.55909 -27.6993,-9.62073 -51.91424,-9.65564 -23.96141,-0.0345 -31.77108,1.26215 -51.2274,8.36283 -40.98347,14.95711 -64.80333,46.35685 -57.52982,75.83109 3.76899,15.27304 11.12173,25.18511 26.0177,35.14814 14.36212,9.60597 27.68153,13.9188 54.29781,17.53367 2.13313,0.28964 9.81823,0.25431 17.04887,-0.0808 48.32708,-2.23977 86.87424,-24.59459 102.77804,-59.63063 7.08563,-15.60965 6.31574,-31.45225 -2.42401,-51.3486 0,0 -14.012,-36.64795 -21.73528,-78.78031 -3.25229,-17.74198 -7.38214,-38.9763 -9.17084,-47.18738 -10.61568,-48.73149 -12.42559,-58.53036 -16.68528,-89.16315 -2.31435,-16.64329 -9.64271,-82.32623 -9.65563,-86.53714 -0.008,-2.69704 0.81718,-2.24189 8.03963,4.32282 18.44508,16.7653 53.32435,39.54852 83.06272,54.25741 23.46437,11.60572 31.67372,21.52484 31.67372,38.25894 0,16.47944 -11.28651,38.99773 -38.38015,76.51791 -4.48854,6.21587 -8.16083,11.67182 -8.16083,12.12004 0,0.44825 5.09042,0.5438 11.31204,0.2424 10.27944,-0.49797 11.96112,-0.93935 18.42248,-5.09042 27.64658,-17.76141 53.5345,-70.25163 47.91458,-97.12197 -3.00575,-14.37134 -19.15487,-32.8258 -42.09696,-48.15699 -7.82147,-5.22676 -31.09197,-18.20172 -51.71219,-28.80532 -50.93625,-26.19308 -51.35206,-35.55808 -74.45753,-45.69257 -2.88336,-1.2647 -5.72183,-1.98217 -8.16083,-2.06041 z"
       id="path3067-5-0"
       inkscape:connector-curvature="0" />
    <path
       style="opacity:0.16666667;color:#000000;fill:url(#radialGradient834);fill-opacity:1;fill-rule:nonzero;stroke:none;stroke-width:5;marker:none;visibility:visible;display:inline;overflow:visible;enable-background:accumulate"
       d="m 711.4375,349.75 c -65.7245,4.50087 -129.31867,13.80182 -189.98433,27.3689 -0.88352,0.19758 -1.49855,-2.46107 -2.38082,-2.26167 -9.81229,2.21759 -19.16646,3.69296 -29.01776,6.28301 -1.16813,0.30712 -3.90136,5.03254 -5.0439,5.3248 -33.58022,8.58957 -65.01681,17.61232 -96.48761,28.75793 -0.96671,0.34237 -1.67982,-2.09202 -2.6444,-1.74734 -9.77817,3.49417 -21.21445,6.60223 -30.76898,10.33146 -0.55915,0.21824 -0.54971,4.41436 -1.10808,4.6334 C 224.26057,479.33517 116.59155,550.9684 40,637.4375 l 0,143.5 671.4375,0 z"
       id="rect829"
       inkscape:connector-curvature="0"
       sodipodi:nodetypes="csssssssscccc" />
    <g
       id="g1046"
       transform="translate(-1.4285713,91.428571)">
      <path
         inkscape:export-ydpi="300"
         inkscape:export-xdpi="300"
         inkscape:export-filename="/Users/matthiasbussonnier/songbook-client/icons/path3971.png"
         sodipodi:nodetypes="csssssccsscc"
         inkscape:connector-curvature="0"
         id="path3067"
         d="m 900.56012,587.30421 c -20.58801,-2.79615 -30.91917,-6.12929 -42.02844,-13.55962 -11.52221,-7.70653 -17.20175,-15.38557 -20.11712,-27.19944 -5.62614,-22.79868 12.80538,-47.09229 44.50658,-58.66179 15.04969,-5.49246 21.10454,-6.47788 39.63897,-6.45119 18.73052,0.027 27.26236,1.61162 40.15773,7.45866 3.48825,1.58164 6.34227,2.64037 6.34227,2.35273 0.34083,-12.51018 11.01449,-2.23845 22.31319,10.14842 6.76031,15.39006 7.33101,27.64031 1.85018,39.71456 -12.30178,27.10079 -42.11277,44.40133 -79.49432,46.13382 -5.59297,0.25921 -11.51904,0.28794 -13.16904,0.0639 z"
         style="fill:url(#radialGradient161);fill-opacity:1" />
      <path
         style="fill:url(#radialGradient1038);fill-opacity:1"
         d="m 900.56012,587.30421 c -20.58801,-2.79615 -30.91917,-6.12929 -42.02844,-13.55962 -11.52221,-7.70653 -17.20175,-15.38557 -20.11712,-27.19944 -5.62614,-22.79868 12.80538,-47.09229 44.50658,-58.66179 15.04969,-5.49246 21.10454,-6.47788 39.63897,-6.45119 18.73052,0.027 27.26236,1.61162 40.15773,7.45866 3.48825,1.58164 6.34227,2.64037 6.34227,2.35273 0.34083,-12.51018 11.01449,-2.23845 22.31319,10.14842 6.76031,15.39006 7.33101,27.64031 1.85018,39.71456 -12.30178,27.10079 -42.11277,44.40133 -79.49432,46.13382 -5.59297,0.25921 -11.51904,0.28794 -13.16904,0.0639 z"
         id="path1036"
         inkscape:connector-curvature="0"
         sodipodi:nodetypes="csssssccsscc"
         inkscape:export-filename="/Users/matthiasbussonnier/songbook-client/icons/path3971.png"
         inkscape:export-xdpi="300"
         inkscape:export-ydpi="300" />
      <path
         inkscape:export-ydpi="300"
         inkscape:export-xdpi="300"
         inkscape:export-filename="/Users/matthiasbussonnier/songbook-client/icons/path3971.png"
         sodipodi:nodetypes="csscssssssssssscssscc"
         style="fill:url(#radialGradient1034);fill-opacity:1"
         d="m 969.06011,491.24356 c 0,0 -3.62397,-11.17193 -8.05326,-24.18729 -29.36564,-86.29015 -43.84418,-144.78491 -45.58408,-184.16427 -0.97591,-22.08786 5.00161,-40.5809 9.83487,-45.41417 1.84635,-1.86377 6.23927,-1.66805 10.6999,0.28846 17.87234,7.83916 18.20279,15.08907 57.60257,35.34973 15.94999,8.20201 33.94999,18.22062 39.99999,22.26358 17.746,11.85885 30.2385,26.15908 32.5635,37.27548 4.3471,20.78454 -15.6785,61.36167 -37.0635,75.10033 -4.9979,3.2109 -6.2987,3.57214 -14.25,3.95733 -4.8125,0.23313 -8.75,0.1402 -8.75,-0.20652 0,-0.34671 2.8407,-4.56426 6.3126,-9.37231 20.9573,-29.0223 29.6874,-46.42209 29.6874,-59.16913 0,-12.94404 -6.35,-20.61349 -24.5,-29.59065 -23.00297,-11.3775 -49.98251,-29.00097 -64.24999,-41.96913 -5.58665,-5.07788 -6.24927,-5.4331 -6.24314,-3.34691 0.01,3.25719 5.67853,54.06724 7.46871,66.94102 3.29491,23.69484 4.71032,31.24642 12.92167,68.9408 1.38358,6.35137 4.57389,22.77637 7.08957,36.5 5.97405,32.58988 16.82638,60.95207 16.82638,60.95207 z"
         id="path3079"
         inkscape:connector-curvature="0" />
      <g
         id="g1014">
        <path
           style="fill:#fcfcfc;fill-opacity:1;stroke:none;filter:url(#filter3861-0)"
           d="m 940.97822,270.96595 c 0,0 -3.57379,-20.25023 -7.68372,-7.09266 -11.9136,38.14034 23.93772,160.4714 33.98566,191.50178 14.55397,33.41796 3.54633,-1.47763 3.54633,-1.47763 -17.95547,-61.17418 -26.30194,-121.75732 -29.84827,-182.93149 z"
           id="path3851"
           inkscape:connector-curvature="0"
           sodipodi:nodetypes="csccc"
           inkscape:export-filename="/Users/matthiasbussonnier/songbook-client/icons/path3971.png"
           inkscape:export-xdpi="300"
           inkscape:export-ydpi="300" />
        <path
           style="fill:#fcfcfc;fill-opacity:1;stroke:none;filter:url(#filter3867-3)"
           d="m 958.41434,263.28223 c 0,0 63.46836,34.01908 80.97456,52.89941 4.2887,4.62534 18.1149,6.46757 13.5942,2.06869 -28.6583,-27.88618 -94.56876,-54.9681 -94.56876,-54.9681 z"
           id="path3865"
           inkscape:connector-curvature="0"
           sodipodi:nodetypes="cssc"
           inkscape:export-filename="/Users/matthiasbussonnier/songbook-client/icons/path3971.png"
           inkscape:export-xdpi="300"
           inkscape:export-ydpi="300" />
        <path
           style="fill:#fcfcfc;fill-opacity:1;stroke:none;filter:url(#filter3877-9)"
           d="m 1060.3713,341.89253 -16.4003,35.52001 -32.3617,31.56472 9.7524,-0.59105 29.2572,-29.84828 z"
           id="path3871"
           inkscape:connector-curvature="0"
           sodipodi:nodetypes="cccccc"
           inkscape:export-filename="/Users/matthiasbussonnier/songbook-client/icons/path3971.png"
           inkscape:export-xdpi="300"
           inkscape:export-ydpi="300" />
        <path
           style="fill:#fcfcfc;fill-opacity:1;stroke:none;filter:url(#filter3877-1-5)"
           d="m 199.92432,293.93037 c -3.75745,-1.60707 -8.87391,24.86994 -16.40036,35.52001 -10.23474,12.64668 -38.26651,36.97368 -27.09158,30.56026 12.6755,-5.78206 26.84423,-17.32887 33.73953,-29.43487 6.25601,-10.9836 16.18458,-33.89435 9.75241,-36.6454 z"
           id="path3871-3"
           inkscape:connector-curvature="0"
           sodipodi:nodetypes="sccss"
           transform="matrix(-0.9514387,-0.30783827,0.30783827,-0.9514387,945.12751,880.6808)"
           inkscape:export-filename="/Users/matthiasbussonnier/songbook-client/icons/path3971.png"
           inkscape:export-xdpi="300"
           inkscape:export-ydpi="300" />
      </g>
      <path
         inkscape:export-ydpi="300"
         inkscape:export-xdpi="300"
         sodipodi:nodetypes="csscsczc"
         inkscape:connector-curvature="0"
         id="path3971"
         d="m 837.62524,542.31064 c 0.16651,1.4128 0.43459,2.84522 0.78125,4.25 2.91537,11.81387 8.6028,19.48097 20.12501,27.1875 11.10927,7.43033 21.44324,10.76635 42.03125,13.5625 1.65,0.22404 7.56327,0.19671 13.15624,-0.0625 34.54645,-1.60109 62.63585,-16.51531 76.40625,-40.15625 0,0 -61.18249,20.62065 -87.56249,18.8125 -26.38001,-1.80815 -64.93751,-23.59375 -64.93751,-23.59375 z"
         style="opacity:0.86842107;fill:#001231;fill-opacity:1;stroke:none;filter:url(#filter4025)" />
    </g>
    <path
       style="fill:#000000;fill-opacity:1;stroke:none"
       d="M -284.53125 101.15625 C -286.56883 101.22948 -288.23695 101.78959 -289.28125 102.84375 C -295.52971 109.09222 -303.26167 132.97595 -302 161.53125 C -299.75065 212.44109 -281.02659 288.06867 -243.0625 399.625 C -237.3363 416.45133 -232.6875 430.875 -232.6875 430.875 C -232.6875 431.24687 -236.36537 429.91975 -240.875 427.875 C -257.54621 420.31591 -268.59756 418.25366 -292.8125 418.21875 C -316.77391 418.18425 -324.57493 419.46182 -344.03125 426.5625 C -385.01472 441.51961 -408.83601 472.93201 -401.5625 502.40625 C -398.85259 513.38759 -394.26198 521.58116 -386.375 529.03125 C -393.04041 522.10252 -397.09195 514.41764 -399.5625 504.40625 C -406.83601 474.93201 -383.01472 443.51961 -342.03125 428.5625 C -322.57493 421.46182 -314.77391 420.18425 -290.8125 420.21875 C -266.59756 420.25366 -255.54621 422.31591 -238.875 429.875 C -234.36537 431.91975 -230.6875 433.24687 -230.6875 432.875 C -230.6875 432.875 -235.3363 418.45133 -241.0625 401.625 C -279.02659 290.06867 -297.75065 214.44109 -300 163.53125 C -301.26167 134.97595 -293.52971 111.09222 -287.28125 104.84375 C -286.08776 103.639 -284.06401 103.07805 -281.625 103.15625 C -279.186 103.23449 -276.35211 103.95405 -273.46875 105.21875 C -250.36328 115.35324 -249.93625 124.71317 -199 150.90625 C -178.37978 161.50985 -155.13397 174.46074 -147.3125 179.6875 C -138.94117 185.28169 -131.47266 191.29923 -125.21875 197.375 C -131.85989 190.62021 -140.02124 183.89644 -149.3125 177.6875 C -157.13397 172.46074 -180.37978 159.50985 -201 148.90625 C -251.93625 122.71317 -252.36328 113.35324 -275.46875 103.21875 C -278.35211 101.95405 -281.186 101.23449 -283.625 101.15625 C -283.92988 101.14647 -284.24017 101.14579 -284.53125 101.15625 z M -125.21875 197.375 C -115.4615 207.29922 -108.97596 217.29262 -107.1875 225.84375 C -101.56758 252.71409 -127.47842 305.20734 -155.125 322.96875 C -161.58636 327.11982 -163.25181 327.56453 -173.53125 328.0625 C -176.87172 328.22433 -179.86203 328.27894 -181.9375 328.21875 C -182.48023 329.07968 -182.84375 329.71444 -182.84375 329.84375 C -182.84375 330.292 -177.75287 330.3639 -171.53125 330.0625 C -161.25181 329.56453 -159.58636 329.11982 -153.125 324.96875 C -125.47842 307.20734 -99.56758 254.71409 -105.1875 227.84375 C -107.09648 218.71636 -114.33346 207.95022 -125.21875 197.375 z M -181.9375 328.21875 C -180.59902 326.09554 -177.88109 322.14133 -174.6875 317.71875 C -147.59386 280.19857 -136.3125 257.66694 -136.3125 241.1875 C -136.3125 231.12976 -139.28917 223.54239 -146.75 216.5625 C -140.7477 223.0045 -138.3125 230.07781 -138.3125 239.1875 C -138.3125 255.66694 -149.59386 278.19857 -176.6875 315.71875 C -181.17604 321.93462 -184.84375 327.39553 -184.84375 327.84375 C -184.84375 328.05133 -183.72759 328.16684 -181.9375 328.21875 z M -146.75 216.5625 C -151.77366 211.17083 -159.30914 206.22531 -170 200.9375 C -199.73837 186.22861 -234.61742 163.4528 -253.0625 146.6875 C -260.28495 140.12279 -261.10175 139.64671 -261.09375 142.34375 C -261.08083 146.55466 -253.75185 212.23171 -251.4375 228.875 C -247.17781 259.50779 -245.36568 269.33101 -234.75 318.0625 C -232.9613 326.27358 -228.81479 347.50802 -225.5625 365.25 C -217.83922 407.38236 -203.84375 444.03125 -203.84375 444.03125 C -195.104 463.9276 -194.32062 479.76535 -201.40625 495.375 C -217.31005 530.41104 -255.86042 552.76023 -304.1875 555 C -311.41814 555.33511 -319.11687 555.38339 -321.25 555.09375 C -347.86628 551.47888 -361.16913 547.13722 -375.53125 537.53125 C -379.71699 534.73166 -383.29263 531.94287 -386.375 529.03125 C -382.87189 532.67275 -378.66299 536.09893 -373.53125 539.53125 C -359.16913 549.13722 -345.86628 553.47888 -319.25 557.09375 C -317.11687 557.38339 -309.41814 557.33511 -302.1875 557 C -253.86042 554.76023 -215.31005 532.41104 -199.40625 497.375 C -192.32062 481.76535 -193.104 465.9276 -201.84375 446.03125 C -201.84375 446.03125 -215.83922 409.38236 -223.5625 367.25 C -226.81479 349.50802 -230.9613 328.27358 -232.75 320.0625 C -243.36568 271.33101 -245.17781 261.50779 -249.4375 230.875 C -251.75185 214.23171 -259.08083 148.55466 -259.09375 144.34375 C -259.10175 141.64671 -258.28495 142.12279 -251.0625 148.6875 C -232.61742 165.4528 -197.73837 188.22861 -168 202.9375 C -158.63848 207.5678 -151.70252 211.92923 -146.75 216.5625 z "
       transform="translate(37.5,104.15625)"
       id="path61" />
    <path
       id="path856"
       d="m -61.316964,-333.25893 c -2.03758,0.0732 -3.7057,0.63334 -4.75,1.6875 -6.24846,6.24847 -13.98042,30.1322 -12.71875,58.6875 2.24935,50.90984 20.97341,126.53742 58.9375,238.093751 5.7262,16.82633 10.3749997,31.2500004 10.3749997,31.2500004 0,0.37187 -3.6778697,-0.95525 -8.1874997,-3 -16.67121,-7.5590904 -27.72256,-9.6213404 -51.9375,-9.6562504 -23.96141,-0.0345 -31.762426,1.24307 -51.218746,8.3437504 -40.98347,14.95711 -64.80476,46.3695096 -57.53125,75.8437496 2.70991,10.98134 7.30052,19.17491 15.1875,26.625 -6.66541,-6.92873 -10.71695,-14.61361 -13.1875,-24.625 -7.27351,-29.47424 16.54778,-60.8866396 57.53125,-75.8437496 19.456316,-7.1006804 27.257336,-8.3782504 51.218746,-8.3437504 24.21494,0.03491 35.26629,2.09716 51.9375,9.6562504 4.50963,2.04475 8.1874997,3.37187 8.1874997,3 0,0 -4.6487997,-14.4236704 -10.3749997,-31.2500004 -37.96409,-111.556331 -56.68815,-187.183911 -58.9375,-238.093751 -1.26167,-28.5553 6.47029,-52.43903 12.71875,-58.6875 1.19349,-1.20475 3.21724,-1.7657 5.65625,-1.6875 2.439,0.0782 5.27289,0.7978 8.15625,2.0625 23.10547,10.13449 23.5325,19.49442 74.46875,45.6875 20.62022,10.6036 43.86603,23.55449 51.6875,28.78125 8.37133,5.59419 15.83984,11.61173 22.09375,17.6875 -6.64114,-6.75479 -14.80249,-13.47856 -24.09375,-19.6875 -7.82147,-5.22676 -31.06728,-18.17765 -51.6875,-28.78125 -50.93625,-26.19308 -51.36328,-35.55301 -74.46875,-45.6875 -2.88336,-1.2647 -5.71725,-1.98426 -8.15625,-2.0625 -0.30488,-0.01 -0.61517,-0.0105 -0.90625,0 z m 159.3125,96.21875 c 9.757254,9.92422 16.242794,19.91762 18.031254,28.46875 5.61992,26.87034 -20.290924,79.36359 -47.937504,97.125 -6.46136,4.15107 -8.12681,4.59578 -18.40625,5.09375 -3.34047,0.16183 -6.33078,0.21644 -8.40625,0.15625 -0.54273,0.86093 -0.90625,1.49569 -0.90625,1.625 0,0.44825 5.09088,0.52015 11.3125,0.21875 10.27944,-0.49797 11.94489,-0.94268 18.40625,-5.09375 27.64658,-17.76141 53.557424,-70.25466 47.937504,-97.125 -1.90898,-9.12739 -9.14596,-19.89353 -20.031254,-30.46875 z m -56.71875,130.84375 c 1.33848,-2.12321 4.05641,-6.07742 7.25,-10.5 27.09364,-37.52018 38.375,-60.05181 38.375,-76.53125 0,-10.05774 -2.97667,-17.64511 -10.4375,-24.625 6.0023,6.442 8.4375,13.51531 8.4375,22.625 0,16.47944 -11.28136,39.01107 -38.375,76.53125 -4.48854,6.21587 -8.15625,11.67678 -8.15625,12.125 0,0.20758 1.11616,0.32309 2.90625,0.375 z m 35.1875,-111.65625 c -5.02366,-5.39167 -12.55914,-10.33719 -23.25,-15.625 -29.73837,-14.70889 -64.61742,-37.4847 -83.0625,-54.25 -7.22245,-6.56471 -8.03925,-7.04079 -8.03125,-4.34375 0.01292,4.21091 7.3419,69.88796 9.65625,86.53125 4.25969,30.63279 6.07182,40.45601 16.6875,89.1875 1.7886997,8.21108 5.9352097,29.445521 9.1874997,47.187501 7.72328,42.13236 21.7187503,78.7812504 21.7187503,78.7812504 8.73975,19.8963496 9.52313,35.7340996 2.4375,51.3437496 -15.9038003,35.03604 -54.45417,57.385229 -102.78125,59.624999 -7.23064,0.33511 -14.92937,0.38339 -17.0625,0.0937 -26.616276,-3.61487 -39.919126,-7.95653 -54.281246,-17.5625 -4.18574,-2.79959 -7.76138,-5.588379 -10.84375,-8.499999 3.50311,3.6415 7.71201,7.067679 12.84375,10.499999 14.36212,9.60597 27.66497,13.94763 54.281246,17.5625 2.13313,0.28964 9.83186,0.24136 17.0625,-0.0937 48.32708,-2.23977 86.8774497,-24.588959 102.78125,-59.624999 7.08563,-15.60965 6.30225,-31.4474 -2.4375,-51.34375 0,0 -13.9954703,-36.64889 -21.71875029,-78.78125 -3.25229001,-17.74198 -7.39880001,-38.976421 -9.18750001,-47.187501 -10.6156797,-48.73149 -12.4278097,-58.55471 -16.6874997,-89.1875 -2.31435,-16.64329 -9.64333,-82.32034 -9.65625,-86.53125 -0.008,-2.69704 0.8088,-2.22096 8.03125,4.34375 18.4450797,16.7653 53.32413,39.54111 83.0625,54.25 9.36152,4.6303 16.29748,8.99173 21.25,13.625 z"
       style="fill:#000000;fill-opacity:1;stroke:none"
       inkscape:connector-curvature="0" />
    <path
       style="fill:#bebebe;fill-opacity:1;fill-rule:nonzero;stroke:none"
       d="M 292.46875 -481.5625 C 290.9863 -481.48947 288.9792 -481.00875 287.78125 -481 C 281.648 -480.95517 275.53478 -480.49469 269.40625 -480.25 C 226.21524 -478.52548 183.01097 -477.02338 139.8125 -475.5 C 118.70553 -474.77876 59.876196 -472.71364 37.78125 -472.09375 C 8.9279413 -471.28426 -20.060985 -470.34853 -48.9375 -470.875 C -50.220457 -470.89839 -51.49982 -470.96119 -52.78125 -471.03125 C -174.3014 -535.76458 -393.45684 -90.606831 -250 6.4375 C -157.70397 -14.096067 -59.850311 -40.730798 -33.96875 -70.4375 C -11.425092 -96.312977 -54.867402 -123.85122 -58.9375 -160.53125 C -65.572429 -220.32574 -92.84375 -296.85722 -92.84375 -397.875 C -92.84375 -409.83001 -16.875819 -424.82941 -32.09375 -452.75 C 7.6244658 -456.72867 47.42694 -459.92877 87.28125 -462.21875 C 104.91786 -463.23213 122.57479 -463.96756 140.21875 -464.84375 C 161.29839 -465.36473 182.40635 -466.22263 203.53125 -466.625 C 195.53272 -465.23264 185.17932 -463.13275 182.375 -461.09375 C 178.98393 -458.62812 177.49907 -454.25576 175.0625 -450.84375 C 179.62169 -445.31704 182.7887 -438.25537 188.75 -434.28125 C 192.25085 -431.94739 223.41972 -427.42673 226.03125 -427 C 238.79862 -424.9138 253.05338 -423.08712 265.40625 -418.8125 C 270.24717 -417.13734 274.70472 -414.48508 279.34375 -412.3125 C 281.70808 -409.68997 284.89595 -407.61418 286.4375 -404.4375 C 288.84976 -399.46653 286.51807 -392.83673 285.15625 -388.15625 C 283.63035 -382.91187 282.12719 -377.65158 280.3125 -372.5 C 278.06192 -366.11099 275.42274 -359.87617 272.96875 -353.5625 L 265.375 -331.78125 C 258.82211 -310.2972 254.10161 -287.99563 256.0625 -265.375 C 256.89956 -255.71884 260.00172 -244.44626 265.6875 -236.3125 C 266.62743 -234.96788 267.77032 -233.78292 268.96875 -232.65625 C 249.97428 -219.20634 232.46802 -203.71888 216.9375 -186.375 C 210.9353 -179.67197 201.88941 -168.34243 196.09375 -161.1875 C 192.57795 -157.88781 184.2181 -144.98705 177.46875 -145.78125 C 176.89744 -145.84847 177.09725 -146.88988 176.84375 -147.40625 C 176.41531 -148.27897 176.00082 -149.14512 175.4375 -149.9375 C 174.14297 -151.75844 172.66294 -153.46302 171.28125 -155.21875 C 161.31544 -167.68722 146.95766 -183.23228 129.125 -181.03125 C 125.84078 -180.62589 122.83141 -178.97008 119.6875 -177.9375 C 117.25626 -175.805 114.4923 -174.00247 112.40625 -171.53125 C 110.66843 -169.47256 109.3415 -167.20275 108.25 -164.8125 C 108.24064 -164.8244 108.22814 -164.83185 108.21875 -164.84375 C 107.02198 -166.36037 105.60928 -167.72421 104.3125 -169.15625 C 102.70254 -170.24967 101.34514 -171.81864 99.5 -172.4375 C 92.987578 -174.62178 89.04805 -173.98657 83.59375 -169.65625 C 80.697364 -167.35673 78.984385 -163.94073 77.75 -160.375 C 73.277407 -164.70786 68.263941 -169.26821 61.96875 -169.09375 C 59.646608 -169.0294 57.42103 -168.04822 55.15625 -167.53125 C 53.506793 -166.10433 51.625522 -164.91667 50.21875 -163.25 C 49.823198 -162.78137 49.452105 -162.26565 49.125 -161.71875 C 47.817066 -162.50873 46.50033 -163.2522 45.15625 -164 C 38.226588 -167.36102 31.512711 -167.4193 26.46875 -161.9375 C 23.691001 -163.21868 20.868567 -164.41159 17.8125 -164.75 C 16.64965 -164.8787 15.450787 -164.81235 14.28125 -164.84375 C 13.053454 -164.76336 11.936697 -164.49019 10.875 -164.125 L -11.4375 -205 L 32.84375 -225 L 65.71875 -300.71875 L 51.4375 -330.71875 L 0 -292.15625 L -30 -192.15625 L 5.71875 -116.4375 L 21.25 -141.28125 C 21.832191 -141.01603 22.423479 -140.76815 23 -140.5 C 25.495597 -139.57969 27.859253 -138.43539 30.65625 -138.6875 C 34.27611 -139.01378 37.578666 -140.46365 39.84375 -142.9375 C 43.921386 -140.25715 48.929037 -136.86823 52.25 -136.78125 C 54.838043 -136.71347 57.359552 -137.69054 59.90625 -138.15625 C 61.42579 -139.59007 63.176003 -140.82752 64.46875 -142.46875 C 64.834635 -142.93326 65.106138 -143.42678 65.34375 -143.9375 C 66.355652 -142.91652 67.333422 -141.87546 68.34375 -140.875 C 70.613261 -138.63799 74.00645 -134.81979 77.21875 -134.0625 C 87.655539 -131.60205 93.2627 -136.75666 94.96875 -146.1875 C 95.000748 -146.38268 95.117626 -146.876 95.25 -147.5 C 96.001367 -146.22728 96.737856 -144.90952 97.5625 -143.4375 C 99.125739 -140.64705 102.39072 -134.04412 105.78125 -133.4375 C 110.17067 -132.65217 114.56702 -134.88069 118.96875 -135.59375 C 119.84516 -137.00127 120.9146 -138.29989 121.59375 -139.8125 C 122.13099 -141.00905 122.29686 -142.34741 122.59375 -143.625 C 123.80835 -148.85176 124.55796 -154.26227 126.96875 -159.125 C 127.60679 -159.75902 128.0728 -160.69295 128.90625 -161.03125 C 132.12495 -162.33772 135.81828 -161.1844 138.6875 -159.71875 C 146.69963 -155.62598 152.0285 -148.07622 157.4375 -141.21875 C 162.34496 -135.53291 165.9326 -129.8266 173.65625 -127.375 C 189.58311 -122.31959 200.89403 -137.98356 209.28125 -148.46875 C 214.80668 -155.64358 222.93104 -166.36927 228.78125 -173.125 C 243.47537 -190.09352 260.40174 -204.98639 279.40625 -216.96875 C 282.59865 -218.71212 285.77818 -220.53038 289 -222.21875 C 290.11111 -222.80102 292.2503 -222.62055 292.65625 -223.625 C 302.83718 -224.60887 303.45806 -231.71944 291.3125 -243.9375 C 291.30553 -243.35127 290.56836 -243.16536 289.6875 -243.125 C 289.64263 -243.53155 289.59184 -243.93583 289.5625 -244.34375 C 289.53609 -244.71085 290.23652 -244.67614 290.75 -244.46875 C 290.62591 -244.59126 290.53286 -244.72024 290.40625 -244.84375 C 289.10704 -246.11117 287.39218 -245.17377 285.625 -243.84375 C 284.15396 -244.86491 282.48223 -245.66897 281.375 -247.0625 C 276.23604 -253.53027 274.69951 -260.67137 273.5 -268.78125 C 270.72562 -287.53881 275.05727 -306.16268 280.3125 -324.0625 C 285.36197 -337.98853 287.56848 -344.17325 288.375 -346.4375 C 287.27321 -343.24428 284.34818 -334.45967 296.21875 -364.59375 C 303.15083 -382.19121 310.92115 -401.78374 297.96875 -419.21875 C 294.83298 -423.43976 289.82778 -425.86761 285.75 -429.1875 C 280.20985 -431.41126 274.82363 -434.06498 269.125 -435.84375 C 256.74235 -439.70885 241.46871 -441.81311 228.8125 -444.21875 C 222.59585 -445.40038 216.33506 -446.46857 210.1875 -447.96875 C 208.67764 -448.3372 207.19727 -449.02488 205.71875 -449.75 C 210.23087 -450.77621 214.18626 -451.456 215.4375 -451.6875 C 230.92984 -454.55381 246.8641 -456.16759 262.53125 -457.625 C 269.16867 -458.24244 275.82409 -458.68483 282.46875 -459.21875 C 283.31924 -460.73832 284.27209 -462.21807 285.25 -463.6875 C 285.3752 -463.66085 285.49999 -463.62129 285.625 -463.59375 C 285.56317 -463.71929 285.49877 -463.84293 285.4375 -463.96875 C 288.95895 -469.23277 292.86207 -474.3708 294.34375 -480.4375 C 294.53865 -481.23552 293.95892 -481.52131 293.0625 -481.5625 C 292.87575 -481.57108 292.68053 -481.57293 292.46875 -481.5625 z M 285.625 -463.59375 C 286.03935 -462.75246 286.46265 -461.88932 286.90625 -461.0625 C 287.25178 -460.41848 287.86478 -463.07073 287.15625 -463.25 C 286.65202 -463.37758 286.13263 -463.4819 285.625 -463.59375 z M 291.3125 -243.9375 C 291.31493 -244.14162 291.08782 -244.31306 290.8125 -244.4375 C 290.98464 -244.26728 291.14522 -244.10578 291.3125 -243.9375 z M 194.875 -446.59375 C 194.79243 -445.72581 194.67441 -444.88638 194.4375 -444.1875 C 192.54733 -443.80037 187.46334 -441.5935 188.75 -443.03125 C 189.95282 -444.37531 192.20132 -445.54404 194.875 -446.59375 z M 48.21875 -159.9375 C 48.080683 -159.62254 47.966924 -159.29336 47.84375 -158.96875 C 47.75929 -159.54746 47.899077 -159.84003 48.21875 -159.9375 z M 89.75 -154.125 C 89.837688 -154.13458 90.070304 -154.08565 90.53125 -153.9375 C 90.747206 -153.70989 90.923205 -153.47515 91.125 -153.25 C 90.308523 -153.64284 89.527121 -154.10066 89.75 -154.125 z M 59.03125 -149.0625 C 59.319758 -149.03117 59.749182 -148.61631 60.03125 -148.4375 C 60.170188 -148.34943 60.301126 -148.24768 60.4375 -148.15625 C 60.265204 -148.17335 60.076951 -148.18687 59.90625 -148.21875 C 59.468595 -148.30048 58.605739 -148.5432 58.8125 -148.9375 C 58.864198 -149.03609 58.935081 -149.07294 59.03125 -149.0625 z M 34.75 -145.71875 C 34.888214 -145.70732 35.283647 -145.58491 36.09375 -145.28125 C 35.372111 -145.36363 34.72398 -145.61753 34.6875 -145.6875 C 34.680146 -145.7016 34.703929 -145.72256 34.75 -145.71875 z "
       transform="translate(37.5,104.15625)"
       id="path860" />
    <path
       style="fill:#acacac;fill-opacity:1;stroke:#b1b1b1;stroke-width:0.5;stroke-miterlimit:4;stroke-opacity:1;stroke-dasharray:none"
       d="M 204.34375 550.96875 C 205.4966 552.16714 206.71779 553.3716 208.03125 554.53125 C 208.12745 554.50735 208.21636 554.4614 208.3125 554.4375 C 206.91165 553.30178 205.57872 552.13531 204.34375 550.96875 z "
       id="path894"
       transform="translate(37.5,104.15625)" />
    <path
       style="fill:#acacac;fill-opacity:1;stroke:#b1b1b1;stroke-width:0.5;stroke-miterlimit:4;stroke-opacity:1;stroke-dasharray:none"
       d="m 311.15829,124.13207 c -3.16496,-1.05473 -8.54508,-0.5951 -9.72079,0.64918 -6.24846,6.24847 -13.98042,30.1322 -12.71875,58.6875 2.24935,50.90984 20.97341,126.53742 58.9375,238.09375 5.7262,16.82633 10.375,31.25 10.375,31.25 0,0.37187 -3.67787,-0.95525 -8.1875,-3 -16.67121,-7.55909 -27.72256,-9.62134 -51.9375,-9.65625 -23.96141,-0.0345 -31.76243,1.24307 -51.21875,8.34375 -40.98347,14.95711 -64.80476,46.36951 -57.53125,75.84375 2.70991,10.98134 7.30052,19.17491 15.1875,26.625 -6.66541,-6.92873 -10.71695,-14.61361 -13.1875,-24.625 -7.27351,-29.47424 16.54778,-60.88664 57.53125,-75.84375 19.45631,-7.10068 27.25734,-8.37825 51.21875,-8.34375 24.21494,0.0349 35.26629,2.09716 51.9375,9.65625 4.50963,2.04475 8.1875,3.37187 8.1875,3 0,0 -4.6488,-14.42367 -10.375,-31.25 -37.96409,-111.55633 -56.68815,-187.18391 -58.9375,-238.09375 -1.26167,-28.5553 6.47029,-52.43903 12.71875,-58.6875 0.11682,-0.11792 0.33641,-0.14441 0.46875,-0.25 1.26739,-0.69198 5.34135,-1.8624 7.25204,-2.39918 z m 133.18546,114.74293 -0.0312,0.0312 c 5.73559,6.33551 8.09375,13.29643 8.09375,22.21875 0,16.47944 -11.28136,39.01107 -38.375,76.53125 -4.48854,6.21587 -8.15625,11.67678 -8.15625,12.125 0,0.0412 0.0407,0.0909 0.125,0.125 L 410.21875,348 c 1.47955,-2.21749 3.40677,-5.01222 5.8125,-8.34375 27.09364,-37.52018 38.375,-60.05181 38.375,-76.53125 0,-9.88231 -2.88505,-17.37047 -10.0625,-24.25 z"
       id="path892"
       transform="translate(37.5,104.15625)"
       inkscape:connector-curvature="0"
       sodipodi:nodetypes="ccsscsssscsssscsscccccsssccssc" />
    <path
       style="fill:#323232;fill-opacity:1;stroke:#333333;stroke-width:0.5;stroke-miterlimit:4;stroke-opacity:1;stroke-dasharray:none"
       d="m 309.09375,125.09375 c 2.439,0.0782 5.27289,0.7978 8.15625,2.0625 11.09593,4.86688 17.00789,9.63234 25.75,16.09375 -0.0416,0.0209 -0.0832,0.0422 -0.125,0.0625 9.41785,6.94516 22.20305,15.91831 48.25,29.3125 20.62022,10.6036 43.86603,23.55449 51.6875,28.78125 8.37133,5.59419 15.83984,11.61173 22.09375,17.6875 -6.64114,-6.75479 -14.80249,-13.47856 -24.09375,-19.6875 -7.82147,-5.22676 -31.06728,-18.17765 -51.6875,-28.78125 -23.51638,-12.09289 -36.19029,-20.56972 -45.375,-27.21875 0.0508,-0.0234 0.10559,-0.0378 0.15625,-0.0625 -10.46461,-7.59782 -16.37051,-12.79875 -28.65625,-18.1875 -2.13891,-0.83163 -3.70361,-1.1267 -6.15625,-0.0625 z m 155.8125,94 c 9.75725,9.92422 16.24279,19.91762 18.03125,28.46875 5.61992,26.87034 -20.29092,79.36359 -47.9375,97.125 -6.46136,4.15107 -8.12681,4.59578 -18.40625,5.09375 -3.34047,0.16183 -6.33078,0.21644 -8.40625,0.15625 -0.54273,0.86093 -0.90625,1.49569 -0.90625,1.625 0,0.44825 5.09088,0.52015 11.3125,0.21875 10.27944,-0.49797 11.94489,-0.94268 18.40625,-5.09375 27.64658,-17.76141 53.55742,-70.25466 47.9375,-97.125 -1.90898,-9.12739 -9.14596,-19.89353 -20.03125,-30.46875 z M 408.1875,349.9375 c 0.33298,-0.5282 0.97895,-1.45365 1.46875,-2.1875 l -4.21875,1.90625 c 0.34092,0.13805 1.31484,0.23963 2.75,0.28125 z M 329.6875,162.5 c -0.52328,-0.0348 -0.65925,0.55111 -0.65625,1.5625 0.0129,4.21091 7.3419,69.88796 9.65625,86.53125 4.25969,30.63279 6.07182,40.45601 16.6875,89.1875 1.7887,8.21108 5.93521,29.44552 9.1875,47.1875 7.72328,42.13236 21.71875,78.78125 21.71875,78.78125 8.73975,19.89635 9.52313,35.7341 2.4375,51.34375 -15.9038,35.03604 -54.45417,57.38523 -102.78125,59.625 -7.23064,0.33511 -14.92937,0.38349 -17.0625,0.0937 -26.61627,-3.61487 -39.91913,-7.95653 -54.28125,-17.5625 -2.50571,-1.67592 -4.75024,-3.36565 -6.84375,-5.0625 -0.0936,0.0233 -0.18758,0.0392 -0.28125,0.0625 2.6788,2.36551 5.68016,4.69595 9.125,7 14.36212,9.60597 27.66498,13.94763 54.28125,17.5625 2.13313,0.28964 9.83186,0.24126 17.0625,-0.0937 48.32708,-2.23977 86.87745,-24.58896 102.78125,-59.625 7.08563,-15.60965 6.30225,-31.4474 -2.4375,-51.34375 0,0 -13.99547,-36.64889 -21.71875,-78.78125 -3.25229,-17.74198 -7.3988,-38.97642 -9.1875,-47.1875 -10.61568,-48.73149 -12.42781,-58.55471 -16.6875,-89.1875 -2.31435,-16.64329 -9.64333,-82.32034 -9.65625,-86.53125 -0.008,-2.69704 0.8088,-2.22096 8.03125,4.34375 18.44508,16.7653 53.32413,39.54111 83.0625,54.25 9.36152,4.6303 16.29748,8.99173 21.25,13.625 -5.02366,-5.39167 -12.55914,-10.33719 -23.25,-15.625 -29.73837,-14.70889 -64.61742,-37.4847 -83.0625,-54.25 -4.51403,-4.10294 -6.50287,-5.84825 -7.375,-5.90625 z m 113.6875,75.78125 c 0.11653,0.12507 0.2299,0.24944 0.34375,0.375 l 0.0312,-0.0312 c -0.12366,-0.11844 -0.24878,-0.22566 -0.375,-0.34375 z"
       transform="translate(37.5,104.15625)"
       id="path877"
       inkscape:connector-curvature="0"
       sodipodi:nodetypes="csccsscsscccccssscsssscccccscssscsscsccsccscssscsscssscccc" />
  </g>
</svg>
