<?xml version="1.0" encoding="UTF-8" standalone="no"?>
<!-- Created with Inkscape (http://www.inkscape.org/) -->

<svg
   xmlns:dc="http://purl.org/dc/elements/1.1/"
   xmlns:cc="http://creativecommons.org/ns#"
   xmlns:rdf="http://www.w3.org/1999/02/22-rdf-syntax-ns#"
   xmlns:svg="http://www.w3.org/2000/svg"
   xmlns="http://www.w3.org/2000/svg"
   xmlns:xlink="http://www.w3.org/1999/xlink"
   xmlns:sodipodi="http://sodipodi.sourceforge.net/DTD/sodipodi-0.dtd"
   xmlns:inkscape="http://www.inkscape.org/namespaces/inkscape"
   id="svg11300"
   height="59.971214"
   width="60.061996"
   version="1.0"
   inkscape:version="0.48.4 r9939"
   sodipodi:docname="applications-internet.svg"
   inkscape:export-filename="/home/crep/git/songbook-client/icons/songbook/22x22/applications-internet.png"
   inkscape:export-xdpi="47.950455"
   inkscape:export-ydpi="47.950455">
  <metadata
     id="metadata45">
    <rdf:RDF>
      <cc:Work
         rdf:about="">
        <dc:format>image/svg+xml</dc:format>
        <dc:type
           rdf:resource="http://purl.org/dc/dcmitype/StillImage" />
        <dc:title></dc:title>
      </cc:Work>
    </rdf:RDF>
  </metadata>
  <sodipodi:namedview
     pagecolor="#ffffff"
     bordercolor="#666666"
     borderopacity="1"
     objecttolerance="10"
     gridtolerance="10"
     guidetolerance="10"
     inkscape:pageopacity="0"
     inkscape:pageshadow="2"
     inkscape:window-width="1625"
     inkscape:window-height="1026"
     id="namedview43"
     showgrid="false"
     inkscape:zoom="5.3636365"
     inkscape:cx="-13.410748"
     inkscape:cy="16.832578"
     inkscape:window-x="55"
     inkscape:window-y="24"
     inkscape:window-maximized="1"
     inkscape:current-layer="svg11300"
     fit-margin-top="0"
     fit-margin-left="0"
     fit-margin-right="0"
     fit-margin-bottom="0" />
  <defs
     id="defs3">
    <linearGradient
       id="linearGradient3156">
      <stop
         id="stop3158"
         style="stop-color:#fff"
         offset="0" />
      <stop
         id="stop3160"
         style="stop-color:#fff;stop-opacity:0"
         offset="1" />
    </linearGradient>
    <linearGradient
       id="linearGradient5575"
       y2="24.653999"
       xlink:href="#linearGradient3156"
       gradientUnits="userSpaceOnUse"
       x2="29.725"
       gradientTransform="matrix(-0.080599,-0.53926,0.24452,0.0082709,8.3675,28.1)"
       y1="55.646999"
       x1="30.502001" />
    <linearGradient
       id="linearGradient5577"
       y2="20.664"
       xlink:href="#linearGradient3156"
       gradientUnits="userSpaceOnUse"
       x2="28.290001"
       gradientTransform="matrix(-0.04856,-0.54248,0.33934,-0.019372,3.6551,28.93)"
       y1="-2.3103001"
       x1="28.221001" />
    <linearGradient
       id="linearGradient5579"
       y2="20.664"
       xlink:href="#linearGradient3156"
       gradientUnits="userSpaceOnUse"
       x2="28.290001"
       gradientTransform="matrix(0.54285,-0.0033948,5.4207e-4,0.3714,-4.4843,4.0902)"
       y1="-0.81502998"
       x1="27.889" />
    <linearGradient
       id="linearGradient5581"
       y2="20.664"
       xlink:href="#linearGradient3156"
       gradientUnits="userSpaceOnUse"
       x2="28.290001"
       gradientTransform="matrix(0.53414,-0.14026,0.096919,0.34395,-6.5733,9.6565)"
       y1="61.853001"
       x1="24.334999" />
    <radialGradient
       id="radialGradient5863"
       gradientUnits="userSpaceOnUse"
       cy="4.625"
       cx="62.625"
       gradientTransform="matrix(0.94118,0,0,0.23529,-47.941,21.412)"
       r="10.625">
      <stop
         id="stop8840"
         offset="0" />
      <stop
         id="stop8842"
         style="stop-opacity:0"
         offset="1" />
    </radialGradient>
    <radialGradient
       id="radialGradient5552"
       fy="6.8828001"
       xlink:href="#linearGradient3156"
       gradientUnits="userSpaceOnUse"
       cy="13.344"
       cx="21.419001"
       gradientTransform="matrix(0.70713,0,0,0.47143,-7.0986,1.2927)"
       r="14" />
    <radialGradient
       id="radialGradient5555"
       xlink:href="#linearGradient3156"
       gradientUnits="userSpaceOnUse"
       cy="33"
       cx="102.75"
       gradientTransform="matrix(1.1993,0,0,1.1,-115.8,-32.1)"
       r="9" />
  </defs>
  <g
     id="g6339"
     transform="matrix(2.7300907,0,0,2.6074215,0,-5.2143215)">
    <path
       id="path6401"
       style="opacity:0.4;fill:url(#radialGradient5863);fill-rule:evenodd;enable-background:new"
       d="M 21,22.5 C 21,23.881 16.523,25 11,25 5.4772,25 1,23.881 1,22.5 1,21.119 5.4772,20 11,20 c 5.5228,0 10,1.1193 10,2.5 z"
       inkscape:connector-curvature="0" />
    <path
       id="path6653"
       style="fill:#555753;stroke:#2e3436;stroke-linecap:round;stroke-linejoin:round"
       d="M 21.5,13 C 21.5,18.796 16.796,23.5 11,23.5 5.204,23.5 0.5,18.796 0.5,13 0.5,7.2041 5.204,2.5 11,2.5 16.796,2.5 21.5,7.204 21.5,13 z"
       inkscape:connector-curvature="0" />
    <path
       id="path6657"
       style="fill:#eeeeec"
       d="m 20.682,10.847 -0.094,0.36235 c -0.27818,-0.23108 -0.59051,-0.42541 -0.90767,-0.62836 l -0.6962,0.07221 -0.63607,-0.50684 v 0.62725 l 0.54495,0.29067 0.36272,0.28955 0.48473,-0.38642 c 0.12202,0.1611 0.24237,0.3222 0.36355,0.4833 v 0.48277 l -0.54578,0.43457 -0.99879,0.4833 -0.75642,0.53208 -0.48474,-0.3876 0.24237,-0.43457 -0.48398,-0.38642 -0.81738,-1.2315 -0.6962,-0.55498 -0.18223,0.14448 0.27327,0.70064 0.51405,0.4105 c 0.29359,0.59743 0.58401,1.1684 0.96955,1.7395 0.59784,0 1.1614,-0.04474 1.7552,-0.09746 v 0.33828 l -0.72635,1.2559 -0.66614,0.53091 -0.54495,0.82216 v 1.3519 l 0.18223,0.53208 -0.30258,0.24083 -0.66697,0.29008 -0.6962,0.4105 0.57585,0.4587 -0.78732,0.48388 0.15125,0.31304 -1.181,0.94258 h -0.78649 l -0.66614,0.29008 h -0.4246 V 21.16052 L 12.17295,20.3865 c -0.23429,-0.48506 -0.47824,-0.96665 -0.72635,-1.4482 0,-0.35548 0.03007,-0.70751 0.06022,-1.0629 l 0.30342,-0.48277 -0.4246,-0.58022 0.0309,-0.79692 -0.57585,-0.4587 0.28793,-0.66394 -0.46849,-0.37468 H 9.84191 l -0.2727,-0.217 -0.8174,0.363 -0.3326,-0.266 -0.7573,0.459 c -0.514,-0.411 -1.0289,-0.822 -1.5437,-1.232 l -0.6052,-1.015 0.545,-0.579 -0.3026,-0.241 0.6653,-1.112 c 0.5466,-0.479 1.1176,-0.9392 1.6951,-1.4007 l 1.0297,-0.19321 1.1501,-0.096342 0.78732,0.14507 1.12,0.79633 0.3937,-0.31362 0.54412,-0.048142 1.0297,0.24135 h 0.78732 l 0.54495,-0.33828 0.24237,-0.24135 -0.54578,-0.24135 -0.9085,-0.048142 c -0.252,-0.2465 -0.486,-0.5056 -0.786,-0.7247 l -0.303,0.0964 -0.121,0.6283 -0.545,-0.4345 -0.121,-0.4839 -0.605,-0.3371 h -0.2432 l 0.60592,0.48277 -0.24237,0.43457 -0.48398,0.096342 0.303,-0.4346 -0.546,-0.1927 -0.483,-0.3864 -0.9092,0.1445 -0.1204,0.1926 -0.5449,0.242 -0.3026,0.5315 -0.7564,0.2654 -0.3335,-0.2654 H 7.39046 v -0.86972 l 0.78732,-0.29008 h 0.60517 l -0.122,-0.3377 -0.4832,-0.3383 0.8166,-0.121 0.4539,-0.3618 0.3627,-0.4351 h 0.66697 l -0.18223,-0.3377 0.4246,-0.19321 v 0.38642 l 0.90767,0.14448 0.90767,-0.53091 0.06097,-0.24194 0.78648,-0.38613 C 13.0984,4.907128 12.81373,4.925444 12.53554,4.978812 v -0.43509 l 0.30258,-0.48306 h -0.30258 l -0.66497,0.43457 -0.18223,0.24165 0.18223,0.33858 -0.303,0.5791 -0.484,-0.1932 -0.423,-0.3377 -0.6669,0.3377 -0.2424,-0.7726 1.1501,-0.5312 v -0.29008 l 0.7271,-0.33799 1.1501,-0.19351 0.78732,0.19351 1.0899,0.48277 h -0.78732 l 0.78732,0.57964 0.60517,-0.48277 c 0,0 2.4081,1.2085 3.6518,2.8799 1.2102,1.6263 1.7168,3.4747 1.7697,3.8588 z"
       inkscape:connector-curvature="0" />
    <path
       id="path6661"
       style="opacity:0.4;fill:none;stroke:url(#radialGradient5555);stroke-width:1.0517;stroke-linecap:round;stroke-linejoin:round"
       d="m 20.374,13 c 0,5.1745 -4.1995,9.3742 -9.3739,9.3742 -5.1744,0 -9.3739,-4.1996 -9.3739,-9.3742 0,-5.1746 4.1995,-9.3742 9.3739,-9.3742 5.1744,0 9.3739,4.1996 9.3739,9.3742 z"
       inkscape:connector-curvature="0" />
    <path
       id="path6663"
       style="opacity:0.4;fill:url(#radialGradient5552)"
       d="m 21.01,9.5518 c 0,3.6432 -4.4351,5.6481 -9.8998,5.6481 -5.4647,0 -9.8998,-2.0049 -9.8998,-5.6481 0,-3.6432 4.4351,-7.552 9.8998,-7.552 5.4647,0 9.8998,3.9087 9.8998,7.552 z"
       inkscape:connector-curvature="0" />
    <path
       id="path6665"
       style="opacity:0.5;fill:none;stroke:url(#linearGradient5581);stroke-width:0.99694002;stroke-linecap:round"
       d="m 20.347,11.545 c 0.93672,3.3243 -2.4889,7.118 -7.6514,8.4736 -5.1624,1.356 -10.107,-0.24 -11.044,-3.565 -0.93619,-3.324 2.4895,-7.1176 7.6519,-8.4732 5.1621,-1.3556 10.107,0.2404 11.043,3.5642 z"
       inkscape:connector-curvature="0" />
    <path
       id="path6667"
       style="opacity:0.5;fill:none;stroke:url(#linearGradient5579);stroke-width:1.00039995;stroke-linecap:round"
       d="M 20.5,12.941 C 20.5052,16.5306 16.2563,19.4671 11.0097,19.5 5.7631,19.53281 1.5056,16.6495 1.5004,13.0599 1.49516,9.4703 5.7441,6.5338 10.9907,6.5009 16.2373,6.468089 20.4948,9.3514 20.5,12.941 z"
       inkscape:connector-curvature="0" />
    <path
       id="path6669"
       style="opacity:0.5;fill:none;stroke:url(#linearGradient5577);stroke-width:1.00090003;stroke-linecap:round"
       d="M 9.6502,3.5066 C 12.93,3.3193 15.969,7.4179 16.438,12.661 16.908,17.904 14.629,22.306 11.35,22.493 8.0701,22.681 5.031,18.582 4.5616,13.339 4.0923,8.0959 6.3705,3.6938 9.6502,3.5066 z"
       inkscape:connector-curvature="0" />
    <path
       id="path6671"
       style="opacity:0.9;fill:none;stroke:url(#linearGradient5575);stroke-width:0.98695999;stroke-linecap:round"
       d="m 10.59,3.4946 c 2.3633,0.079938 6.6007,5.2149 7.3797,10.427 0.77899,5.212 -2.1955,8.5272 -4.5588,8.4473 -2.364,-0.08 -4.9111,-4.37 -5.6901,-9.582 -0.779,-5.2121 0.5053,-9.3724 2.8691,-9.2924 z"
       inkscape:connector-curvature="0" />
    <g
       id="g6673"
       style="opacity:0.6;stroke-width:2.10800004"
       transform="matrix(0.49781,-0.13842,0.13541,0.50886,-1.647,2.0422)">
      <path
         id="path6675"
         style="opacity:0.8;fill:#ffffff"
         d="m 31.375,37.875 c 0,0.9665 -0.7835,1.75 -1.75,1.75 -0.9665,0 -1.75,-0.7835 -1.75,-1.75 0,-0.9665 0.7835,-1.75 1.75,-1.75 0.9665,0 1.75,0.7835 1.75,1.75 z"
         transform="matrix(0.85714,0,0,0.85714,4.1071,5.0357)"
         inkscape:connector-curvature="0" />
    </g>
    <g
       id="g6677"
       style="opacity:0.6;stroke-width:2.11120009"
       transform="matrix(0.49172,-0.11974,0.15605,0.51358,-14.084,4.1819)">
      <path
         id="path6679"
         style="opacity:0.5;fill:#ffffff"
         d="m 31.375,37.875 c 0,0.9665 -0.7835,1.75 -1.75,1.75 -0.9665,0 -1.75,-0.7835 -1.75,-1.75 0,-0.9665 0.7835,-1.75 1.75,-1.75 0.9665,0 1.75,0.7835 1.75,1.75 z"
         transform="matrix(0.85714,0,0,0.85714,4.1071,5.0357)"
         inkscape:connector-curvature="0" />
    </g>
    <g
       id="g6681"
       style="opacity:0.6;stroke-width:2.11030006"
       transform="matrix(0.47705,-0.16815,0.19641,0.49982,-6.4521,-6.9074)">
      <path
         id="path6683"
         style="opacity:0.8;fill:#ffffff"
         d="m 31.375,37.875 c 0,0.9665 -0.7835,1.75 -1.75,1.75 -0.9665,0 -1.75,-0.7835 -1.75,-1.75 0,-0.9665 0.7835,-1.75 1.75,-1.75 0.9665,0 1.75,0.7835 1.75,1.75 z"
         transform="matrix(0.85714,0,0,0.85714,4.1071,5.0357)"
         inkscape:connector-curvature="0" />
    </g>
    <g
       id="g6685"
       style="opacity:0.6;stroke-width:2.15750003"
       transform="matrix(0.51592,-0.14876,-0.0086906,0.50593,-10.12,-6.3754)">
      <path
         id="path6687"
         style="opacity:0.5;fill:#ffffff"
         d="m 31.375,37.875 c 0,0.9665 -0.7835,1.75 -1.75,1.75 -0.9665,0 -1.75,-0.7835 -1.75,-1.75 0,-0.9665 0.7835,-1.75 1.75,-1.75 0.9665,0 1.75,0.7835 1.75,1.75 z"
         transform="matrix(0.85714,0,0,0.85714,4.1071,5.0357)"
         inkscape:connector-curvature="0" />
    </g>
  </g>
</svg>
