<?xml version="1.0" encoding="UTF-8" standalone="no"?>
<!-- Created with Inkscape (http://www.inkscape.org/) -->

<svg
   xmlns:dc="http://purl.org/dc/elements/1.1/"
   xmlns:cc="http://creativecommons.org/ns#"
   xmlns:rdf="http://www.w3.org/1999/02/22-rdf-syntax-ns#"
   xmlns:svg="http://www.w3.org/2000/svg"
   xmlns="http://www.w3.org/2000/svg"
   xmlns:sodipodi="http://sodipodi.sourceforge.net/DTD/sodipodi-0.dtd"
   xmlns:inkscape="http://www.inkscape.org/namespaces/inkscape"
   id="svg3039"
   version="1.1"
   inkscape:version="0.48.2 r9819"
   width="48"
   height="48"
   sodipodi:docname="select-invert.svg"
   inkscape:export-filename="/home/rgoffe/songbook-client/icons/songbook/48x48/select-invert.png"
   inkscape:export-xdpi="90"
   inkscape:export-ydpi="90">
  <metadata
     id="metadata3045">
    <rdf:RDF>
      <cc:Work
         rdf:about="">
        <dc:format>image/svg+xml</dc:format>
        <dc:type
           rdf:resource="http://purl.org/dc/dcmitype/StillImage" />
        <dc:title></dc:title>
      </cc:Work>
    </rdf:RDF>
  </metadata>
  <defs
     id="defs3043" />
  <sodipodi:namedview
     pagecolor="#ffffff"
     bordercolor="#666666"
     borderopacity="1"
     objecttolerance="10"
     gridtolerance="10"
     guidetolerance="10"
     inkscape:pageopacity="0"
     inkscape:pageshadow="2"
     inkscape:window-width="1280"
     inkscape:window-height="969"
     id="namedview3041"
     showgrid="false"
     inkscape:zoom="4.0520832"
     inkscape:cx="-7.0910483"
     inkscape:cy="23.471952"
     inkscape:window-x="-2"
     inkscape:window-y="-3"
     inkscape:window-maximized="1"
     inkscape:current-layer="svg3039" />
  <rect
     style="opacity:0.7;fill:#babdb6;fill-opacity:1;stroke:none"
     id="rect4057"
     width="36.84676"
     height="3.0977361"
     x="5.5766201"
     y="44.592827"
     rx="1.8685908"
     ry="1.8685908" />
  <rect
     style="fill:#eeeeec;stroke:#555753;stroke-width:0.50000000000000000;stroke-miterlimit:4;stroke-dasharray:none"
     id="rect3049"
     width="33.044926"
     height="46.131092"
     x="7.1597123"
     y="0.55943769"
     rx="2.1579981"
     ry="2.1579981" />
  <g
     id="g3886"
     transform="matrix(1.078999,0,0,1.078999,-0.2201487,-0.8648925)"
     style="stroke:#555753">
    <path
       d="m 13.264781,7.0025706 c 0,0.6644454 -0.524828,1.2030849 -1.172236,1.2030849 -0.647409,0 -1.172237,-0.5386395 -1.172237,-1.2030849 0,-0.6644454 0.524828,-1.2030848 1.172237,-1.2030848 0.647408,0 1.172236,0.5386394 1.172236,1.2030848 z"
       sodipodi:ry="1.2030848"
       sodipodi:rx="1.1722366"
       sodipodi:cy="7.0025706"
       sodipodi:cx="12.092545"
       id="path3051"
       style="fill:none;stroke:#555753;stroke-width:0.92678486999999998;stroke-miterlimit:4;stroke-dasharray:none"
       sodipodi:type="arc" />
    <path
       inkscape:connector-curvature="0"
       id="path3821"
       d="m 16.226221,7.033419 16.658098,0"
       style="fill:none;stroke:#555753;stroke-width:1.85356974999999990;stroke-linecap:butt;stroke-linejoin:miter;stroke-miterlimit:4;stroke-opacity:1;stroke-dasharray:none" />
  </g>
  <rect
     style="opacity:0.7;fill:#fcaf3e;fill-opacity:1;stroke:none"
     id="rect3895"
     width="27.678656"
     height="5.5545611"
     x="9.8428469"
     y="3.9135935"
     rx="2.1579981"
     ry="2.1579981" />
  <g
     id="g3890"
     transform="matrix(1.078999,0,0,1.078999,-0.32482261,-0.97356625)"
     style="stroke:#555753">
    <g
       id="g3883"
       style="stroke:#555753">
      <path
         transform="translate(0.09701039,8.0160786)"
         sodipodi:type="arc"
         style="fill:none;stroke:#555753;stroke-width:0.92678486999999998;stroke-miterlimit:4;stroke-dasharray:none"
         id="path3051-1"
         sodipodi:cx="12.092545"
         sodipodi:cy="7.0025706"
         sodipodi:rx="1.1722366"
         sodipodi:ry="1.2030848"
         d="m 13.264781,7.0025706 c 0,0.6644454 -0.524828,1.2030849 -1.172236,1.2030849 -0.647409,0 -1.172237,-0.5386395 -1.172237,-1.2030849 0,-0.6644454 0.524828,-1.2030848 1.172237,-1.2030848 0.647408,0 1.172236,0.5386394 1.172236,1.2030848 z" />
    </g>
    <path
       inkscape:connector-curvature="0"
       id="path3821-0"
       d="m 16.323231,15.049498 16.658098,0"
       style="fill:none;stroke:#555753;stroke-width:1.85356974999999990;stroke-linecap:butt;stroke-linejoin:miter;stroke-miterlimit:4;stroke-opacity:1;stroke-dasharray:none" />
  </g>
  <g
     id="g3879"
     transform="matrix(1.078999,0,0,1.078999,1.746369,-0.71766967)"
     style="stroke:#555753">
    <path
       d="m 13.264781,7.0025706 c 0,0.6644454 -0.524828,1.2030849 -1.172236,1.2030849 -0.647409,0 -1.172237,-0.5386395 -1.172237,-1.2030849 0,-0.6644454 0.524828,-1.2030848 1.172237,-1.2030848 0.647408,0 1.172236,0.5386394 1.172236,1.2030848 z"
       sodipodi:ry="1.2030848"
       sodipodi:rx="1.1722366"
       sodipodi:cy="7.0025706"
       sodipodi:cx="12.092545"
       id="path3051-4"
       style="fill:none;stroke:#555753;stroke-width:0.92678486999999998;stroke-miterlimit:4;stroke-dasharray:none"
       sodipodi:type="arc"
       transform="translate(-1.8225391,15.694277)" />
    <path
       inkscape:connector-curvature="0"
       id="path3821-2"
       d="m 14.403682,22.727696 16.658098,0"
       style="fill:none;stroke:#555753;stroke-width:1.85356974999999990;stroke-linecap:butt;stroke-linejoin:miter;stroke-miterlimit:4;stroke-opacity:1;stroke-dasharray:none" />
  </g>
  <rect
     style="opacity:0.7;fill:#fcaf3e;fill-opacity:1;stroke:none"
     id="rect3895-94"
     width="27.678656"
     height="5.5545611"
     x="9.8428469"
     y="20.994926"
     rx="2.1579981"
     ry="2.1579981" />
  <g
     id="g3875"
     transform="matrix(1.078999,0,0,1.078999,0.80491844,-0.83835199)"
     style="stroke:#555753">
    <path
       d="m 13.264781,7.0025706 c 0,0.6644454 -0.524828,1.2030849 -1.172236,1.2030849 -0.647409,0 -1.172237,-0.5386395 -1.172237,-1.2030849 0,-0.6644454 0.524828,-1.2030848 1.172237,-1.2030848 0.647408,0 1.172236,0.5386394 1.172236,1.2030848 z"
       sodipodi:ry="1.2030848"
       sodipodi:rx="1.1722366"
       sodipodi:cy="7.0025706"
       sodipodi:cx="12.092545"
       id="path3051-2"
       style="fill:none;stroke:#555753;stroke-width:0.92678486999999998;stroke-miterlimit:4;stroke-dasharray:none"
       sodipodi:type="arc"
       transform="translate(-0.9500166,23.721484)" />
    <path
       inkscape:connector-curvature="0"
       id="path3821-20"
       d="m 15.276204,30.754903 16.658098,0"
       style="fill:none;stroke:#555753;stroke-width:1.85356974999999990;stroke-linecap:butt;stroke-linejoin:miter;stroke-miterlimit:4;stroke-opacity:1;stroke-dasharray:none" />
  </g>
  <g
     id="g3871"
     transform="matrix(1.078999,0,0,1.078999,-0.32482262,-0.86489057)"
     style="stroke:#555753">
    <path
       d="m 13.264781,7.0025706 c 0,0.6644454 -0.524828,1.2030849 -1.172236,1.2030849 -0.647409,0 -1.172237,-0.5386395 -1.172237,-1.2030849 0,-0.6644454 0.524828,-1.2030848 1.172237,-1.2030848 0.647408,0 1.172236,0.5386394 1.172236,1.2030848 z"
       sodipodi:ry="1.2030848"
       sodipodi:rx="1.1722366"
       sodipodi:cy="7.0025706"
       sodipodi:cx="12.092545"
       id="path3051-5"
       style="fill:none;stroke:#555753;stroke-width:0.92678486999999998;stroke-miterlimit:4;stroke-dasharray:none"
       sodipodi:type="arc"
       transform="translate(0.09701041,31.661439)" />
    <path
       inkscape:connector-curvature="0"
       id="path3821-5"
       d="m 16.323231,38.694858 16.658098,0"
       style="fill:none;stroke:#555753;stroke-width:1.85356974999999990;stroke-linecap:butt;stroke-linejoin:miter;stroke-miterlimit:4;stroke-opacity:1;stroke-dasharray:none" />
  </g>
  <rect
     style="opacity:0.7;fill:#fcaf3e;fill-opacity:1;stroke:none"
     id="rect3895-1"
     width="27.678656"
     height="5.5545611"
     x="9.8428469"
     y="38.07626"
     rx="2.1579981"
     ry="2.1579981" />
</svg>
