<?xml version="1.0" encoding="UTF-8" standalone="no"?>
<!-- Created with Inkscape (http://www.inkscape.org/) -->

<svg
   xmlns:dc="http://purl.org/dc/elements/1.1/"
   xmlns:cc="http://creativecommons.org/ns#"
   xmlns:rdf="http://www.w3.org/1999/02/22-rdf-syntax-ns#"
   xmlns:svg="http://www.w3.org/2000/svg"
   xmlns="http://www.w3.org/2000/svg"
   xmlns:xlink="http://www.w3.org/1999/xlink"
   xmlns:sodipodi="http://sodipodi.sourceforge.net/DTD/sodipodi-0.dtd"
   xmlns:inkscape="http://www.inkscape.org/namespaces/inkscape"
   id="svg3506"
   height="48"
   width="48"
   version="1.0"
   inkscape:version="0.48.2 r9819"
   sodipodi:docname="book.svg">
  <sodipodi:namedview
     pagecolor="#ffffff"
     bordercolor="#666666"
     borderopacity="1"
     objecttolerance="10"
     gridtolerance="10"
     guidetolerance="10"
     inkscape:pageopacity="0"
     inkscape:pageshadow="2"
     inkscape:window-width="1280"
     inkscape:window-height="1000"
     id="namedview63"
     showgrid="false"
     inkscape:zoom="2.4583334"
     inkscape:cx="24.074871"
     inkscape:cy="24.824782"
     inkscape:window-x="0"
     inkscape:window-y="24"
     inkscape:window-maximized="1"
     inkscape:current-layer="svg3506" />
  <metadata
     id="metadata53">
    <rdf:RDF>
      <cc:Work
         rdf:about="">
        <dc:format>image/svg+xml</dc:format>
        <dc:type
           rdf:resource="http://purl.org/dc/dcmitype/StillImage" />
        <dc:title />
      </cc:Work>
    </rdf:RDF>
  </metadata>
  <defs
     id="defs3508">
    <radialGradient
       gradientTransform="matrix(0,0.67924,-0.73892,0,72.903,-17.49)"
       r="31"
       cy="51.695"
       cx="69.448"
       gradientUnits="userSpaceOnUse"
       id="radialGradient4197">
      <stop
         offset="0"
         style="stop-color:#eef87e"
         id="stop4199" />
      <stop
         offset="0.11059119"
         style="stop-color:#cde34f"
         id="stop4201" />
      <stop
         offset=".66094"
         style="stop-color:#93b723"
         id="stop4203" />
      <stop
         offset="1"
         style="stop-color:#5a7e0d"
         id="stop4205" />
    </radialGradient>
    <radialGradient
       id="radialGradient3873"
       xlink:href="#linearGradient5060"
       gradientUnits="userSpaceOnUse"
       cy="486.65"
       cx="605.71"
       gradientTransform="matrix(0.024097,0,0,0.015375,26.478,38.629)"
       r="117.14" />
    <linearGradient
       id="linearGradient5060">
      <stop
         id="stop5062"
         offset="0" />
      <stop
         id="stop5064"
         style="stop-opacity:0"
         offset="1" />
    </linearGradient>
    <radialGradient
       id="radialGradient3586"
       xlink:href="#linearGradient5060"
       gradientUnits="userSpaceOnUse"
       cy="486.65"
       cx="605.71"
       gradientTransform="matrix(-0.024097,0,0,0.015375,21.522,38.629)"
       r="117.14" />
    <linearGradient
       id="linearGradient3584"
       y2="609.51"
       gradientUnits="userSpaceOnUse"
       x2="302.86"
       gradientTransform="matrix(0.070414,0,0,0.015375,-1.4497,38.629)"
       y1="366.65"
       x1="302.86">
      <stop
         id="stop5050"
         style="stop-opacity:0"
         offset="0" />
      <stop
         id="stop5056"
         offset=".5" />
      <stop
         id="stop5052"
         style="stop-opacity:0"
         offset="1" />
    </linearGradient>
    <linearGradient
       id="linearGradient2878"
       y2="61.22"
       gradientUnits="userSpaceOnUse"
       x2="53.453"
       gradientTransform="matrix(0.70071,0,0,0.75439,2.0789,-0.16914)"
       y1="11.03"
       x1="22.334">
      <stop
         id="stop3321"
         style="stop-color:#af9b7f"
         offset="0" />
      <stop
         id="stop3323"
         style="stop-color:#736148"
         offset="1" />
    </linearGradient>
    <linearGradient
       id="linearGradient2876"
       y2="46"
       gradientUnits="userSpaceOnUse"
       x2="38.491"
       gradientTransform="matrix(0.97391,0,0,1.0485,2.0472,-2.2169)"
       y1="9.8889"
       x1="16.102">
      <stop
         id="stop8969"
         style="stop-color:#ddcfbd"
         offset="0" />
      <stop
         id="stop8971"
         style="stop-color:#856f50"
         offset="1" />
    </linearGradient>
    <linearGradient
       id="linearGradient2873"
       y2="25.019"
       gradientUnits="userSpaceOnUse"
       x2="8.5001"
       gradientTransform="matrix(0.83712,0,0,1.0428,1.9516,-2.0972)"
       y1="25.019"
       x1="5.4801">
      <stop
         id="stop8980"
         style="stop-color:#4d5459;stop-opacity:.99608"
         offset="0" />
      <stop
         id="stop8982"
         style="stop-color:#141b1f"
         offset="1" />
    </linearGradient>
    <linearGradient
       id="linearGradient2867"
       y2=".065302"
       gradientUnits="userSpaceOnUse"
       x2="55.495"
       gradientTransform="matrix(0.71628,0,0,0.74716,2.1542,-0.051651)"
       y1="5.2438"
       x1="5.7542">
      <stop
         id="stop3915"
         style="stop-color:#4e555a"
         offset="0" />
      <stop
         id="stop3917"
         style="stop-color:#151c20"
         offset=".15978" />
      <stop
         id="stop3919"
         style="stop-color:#9b876c"
         offset=".16723" />
      <stop
         id="stop3921"
         style="stop-color:#9b876c"
         offset=".75216" />
      <stop
         id="stop3923"
         style="stop-color:#9b876c"
         offset=".93860" />
      <stop
         id="stop3925"
         style="stop-color:#c2c2c2"
         offset=".94891" />
      <stop
         id="stop3927"
         style="stop-color:#c2c2c2"
         offset="1" />
    </linearGradient>
    <linearGradient
       id="linearGradient2865"
       y2="4.8826"
       gradientUnits="userSpaceOnUse"
       x2="24.64"
       gradientTransform="matrix(1.004,0,0,1.5381,1.2233,-4.04)"
       y1="3.1234"
       x1="24.627">
      <stop
         id="stop2348"
         style="stop-color:#eee"
         offset="0" />
      <stop
         id="stop2350"
         style="stop-color:#d9d9da"
         offset="1" />
    </linearGradient>
    <linearGradient
       id="linearGradient3204"
       y2="24.62"
       gradientUnits="userSpaceOnUse"
       x2="40.978"
       y1="4.0341"
       x1="28.252">
      <stop
         id="stop3200"
         style="stop-color:#fff"
         offset="0" />
      <stop
         id="stop3202"
         style="stop-color:#fff;stop-opacity:0"
         offset="1" />
    </linearGradient>
    <linearGradient
       id="linearGradient3090"
       y2="52.809"
       gradientUnits="userSpaceOnUse"
       y1="123.19"
       gradientTransform="matrix(0.28214,0,0,0.28445,12.171,11.958)"
       x2="72.422"
       x1="72.422">
      <stop
         id="stop2492-3"
         style="stop-color:#365f0e"
         offset="0" />
      <stop
         id="stop2494-8"
         style="stop-color:#84a718"
         offset="1" />
    </linearGradient>
    <linearGradient
       inkscape:collect="always"
       xlink:href="#linearGradient2865"
       id="linearGradient3070"
       gradientUnits="userSpaceOnUse"
       gradientTransform="matrix(1.004,0,0,1.5381,1.2233,-4.04)"
       x1="24.627"
       y1="3.1234"
       x2="24.64"
       y2="4.8826" />
    <linearGradient
       inkscape:collect="always"
       xlink:href="#linearGradient2867"
       id="linearGradient3072"
       gradientUnits="userSpaceOnUse"
       gradientTransform="matrix(0.71628,0,0,0.74716,2.1542,-0.051651)"
       x1="5.7542"
       y1="5.2438"
       x2="55.495"
       y2=".065302" />
    <linearGradient
       inkscape:collect="always"
       xlink:href="#linearGradient3204"
       id="linearGradient3075"
       gradientUnits="userSpaceOnUse"
       x1="28.252"
       y1="4.0341"
       x2="40.978"
       y2="24.62" />
    <linearGradient
       inkscape:collect="always"
       xlink:href="#linearGradient2873"
       id="linearGradient3080"
       gradientUnits="userSpaceOnUse"
       gradientTransform="matrix(0.83712,0,0,1.0428,1.9516,-2.0972)"
       x1="5.4801"
       y1="25.019"
       x2="8.5001"
       y2="25.019" />
    <linearGradient
       inkscape:collect="always"
       xlink:href="#linearGradient2876"
       id="linearGradient3083"
       gradientUnits="userSpaceOnUse"
       gradientTransform="matrix(0.97391,0,0,1.0485,2.0472,-2.2169)"
       x1="16.102"
       y1="9.8889"
       x2="38.491"
       y2="46" />
    <linearGradient
       inkscape:collect="always"
       xlink:href="#linearGradient2878"
       id="linearGradient3085"
       gradientUnits="userSpaceOnUse"
       gradientTransform="matrix(0.70071,0,0,0.75439,2.0789,-0.16914)"
       x1="22.334"
       y1="11.03"
       x2="53.453"
       y2="61.22" />
    <linearGradient
       inkscape:collect="always"
       xlink:href="#radialGradient4197"
       id="linearGradient3326"
       x1="38.718632"
       y1="6.7704306"
       x2="76.698792"
       y2="43.680305"
       gradientUnits="userSpaceOnUse"
       gradientTransform="matrix(0.85728846,0,0,0.85728846,-18.316935,9.7893018)" />
    <linearGradient
       inkscape:collect="always"
       xlink:href="#linearGradient3090"
       id="linearGradient4112"
       x1="76.698792"
       y1="43.680305"
       x2="57.037773"
       y2="-9.4314938"
       gradientUnits="userSpaceOnUse"
       gradientTransform="matrix(0.85728846,0,0,0.85728846,-18.316935,9.7893018)" />
  </defs>
  <g
     transform="matrix(0.95613,0,0,0.95613,1.045,1.1059)"
     id="g2877">
    <rect
       x="7"
       y="44.265999"
       width="34"
       height="3.7339001"
       style="opacity:0.40206;fill:url(#linearGradient3584)"
       id="rect2879" />
    <path
       inkscape:connector-curvature="0"
       d="M 7,44.266 V 48 C 5.7591,48.007 4,47.163 4,46.133 4,45.102 5.3848,44.266 7,44.266 z"
       style="opacity:0.40206;fill:url(#radialGradient3586)"
       id="path2881" />
    <path
       inkscape:connector-curvature="0"
       d="M 41,44.266 V 48 c 1.241,0.007 3,-0.837 3,-1.867 0,-1.031 -1.385,-1.867 -3,-1.867 z"
       style="opacity:0.40206;fill:url(#radialGradient3873)"
       id="path2883" />
  </g>
  <rect
     x="7.5128999"
     y="3.5499001"
     width="33.978001"
     height="41.941002"
     ry="0.33013001"
     rx="0.30969"
     style="fill:url(#linearGradient3083);stroke:url(#linearGradient3085);stroke-width:1.01900005;stroke-linecap:round;stroke-linejoin:round;stroke-miterlimit:0"
     id="rect2719" />
  <path
     inkscape:connector-curvature="0"
     d="m 6.1372,2.074 c 2.4185,1.5303 4.5838,0.8957 5.8598,1.0536 v 42.744 H 7.3335 c 0,0 -1.1963,0 -1.1963,-1.226 V 2.0736 z"
     style="fill:url(#linearGradient3080)"
     id="path2721" />
  <rect
     x="10.112"
     y="4.2750001"
     width="1.7801"
     height="40.77"
     ry="0.79861999"
     rx="0.64036"
     style="fill:#4d4d4d"
     id="rect2725" />
  <path
     inkscape:connector-curvature="0"
     d="m 12.446,4.5505 28.048,-0.033 v 40.206"
     style="opacity:0.4;fill:none;stroke:url(#linearGradient3075);stroke-width:0.96683002;stroke-linecap:square;stroke-linejoin:round"
     id="path4743" />
  <path
     inkscape:connector-curvature="0"
     d="M 40.839,3.2172 C 40.544,2.2259 40.728,1.4541 40.565,0.5087 c 0,2e-5 -28.591,2e-5 -30.24,2e-5 -1.5705,0 -3.122,0.23031 -3.5598,1.1675 -0.0247,0.0528 -0.0519,0.106 -0.0672,0.1634 -0.4016,0.966 1.2619,1.7216 3.805,1.7216 h 1.515"
     style="fill:url(#linearGradient3070);stroke:url(#linearGradient3072);stroke-width:1.01740003;stroke-linejoin:round;stroke-miterlimit:0"
     id="path2723" />
  <path
     inkscape:connector-curvature="0"
     d="M 41.308,3.5555 H 11.989"
     style="fill:#a18d72;fill-rule:evenodd;stroke:#a18d72;stroke-width:1px"
     id="path4494" />
  <path
     style="fill:url(#linearGradient3326);fill-opacity:1;stroke:url(#linearGradient4112);stroke-width:0.85728848"
     d="m 34.855583,15.115902 c -0.173551,-0.0053 -0.317553,0.03493 -0.402481,0.120809 -0.444638,0.444641 -0.995359,2.145193 -0.905579,4.177169 0.160062,3.622731 1.49291,9.003249 4.19442,16.941544 0.407475,1.197361 0.73884,2.225145 0.73884,2.225145 0,0.02638 -0.262694,-0.07002 -0.583597,-0.215621 -1.186317,-0.537902 -1.971072,-0.684601 -3.694196,-0.687095 -1.705085,-0.0018 -2.260818,0.08981 -3.645321,0.595099 -2.916366,1.064347 -4.611379,3.298738 -4.093799,5.396108 0.2682,1.086833 0.791418,1.792176 1.851409,2.501135 1.022003,0.683549 1.969806,0.990453 3.86381,1.247679 0.151795,0.02067 0.69866,0.01817 1.21319,-0.0053 3.438936,-0.159296 6.181936,-1.750141 7.313644,-4.243292 0.50421,-1.110782 0.449425,-2.238134 -0.1725,-3.65395 0,0 -0.99709,-2.607847 -1.546675,-5.605973 -0.231431,-1.262505 -0.52531,-2.773542 -0.652593,-3.357842 -0.755406,-3.467711 -0.884201,-4.164981 -1.187318,-6.344814 -0.164696,-1.184318 -0.68617,-5.858299 -0.687089,-6.157934 -5.53e-4,-0.191921 0.05814,-0.159475 0.572095,0.307599 1.312544,1.193014 3.794539,2.814256 5.910708,3.860946 1.669717,0.825848 2.25389,1.531687 2.25389,2.722491 0,1.172665 -0.803143,2.775057 -2.731115,5.444986 -0.319403,0.442305 -0.580721,0.83055 -0.580721,0.862446 0,0.03188 0.362231,0.03866 0.804958,0.01782 0.731482,-0.03546 0.851148,-0.06682 1.310937,-0.36223 1.967319,-1.263895 3.809493,-4.999079 3.409581,-6.911154 -0.213888,-1.022697 -1.363052,-2.335896 -2.995602,-3.426864 -0.556571,-0.371941 -2.21249,-1.295219 -3.679817,-2.049775 -3.624602,-1.863895 -3.654191,-2.530303 -5.298367,-3.251468 -0.205178,-0.08998 -0.407163,-0.141122 -0.580721,-0.146645 z"
     id="path3067-5-0"
     inkscape:connector-curvature="0" />
</svg>
