<?xml version="1.0" encoding="UTF-8" standalone="no"?>
<svg
   xmlns:dc="http://purl.org/dc/elements/1.1/"
   xmlns:cc="http://creativecommons.org/ns#"
   xmlns:rdf="http://www.w3.org/1999/02/22-rdf-syntax-ns#"
   xmlns:svg="http://www.w3.org/2000/svg"
   xmlns="http://www.w3.org/2000/svg"
   xmlns:sodipodi="http://sodipodi.sourceforge.net/DTD/sodipodi-0.dtd"
   xmlns:inkscape="http://www.inkscape.org/namespaces/inkscape"
   version="1.1"
   preserveAspectRatio="xMidYMid meet"
   zoomAndPan="magnify"
   id="Flag_of_the_United_Kingdom_3-5"
   viewBox="-12.5 -7.5 22.5 15"
   width="900"
   height="600"
   inkscape:version="0.48+devel r10124"
   sodipodi:docname="flag-en-tr.svg">
  <metadata
     id="metadata21">
    <rdf:RDF>
      <cc:Work
         rdf:about="">
        <dc:format>image/svg+xml</dc:format>
        <dc:type
           rdf:resource="http://purl.org/dc/dcmitype/StillImage" />
        <dc:title />
      </cc:Work>
    </rdf:RDF>
  </metadata>
  <sodipodi:namedview
     pagecolor="#ffffff"
     bordercolor="#666666"
     borderopacity="1"
     objecttolerance="10"
     gridtolerance="10"
     guidetolerance="10"
     inkscape:pageopacity="0"
     inkscape:pageshadow="2"
     inkscape:window-width="1082"
     inkscape:window-height="717"
     id="namedview19"
     showgrid="false"
     inkscape:zoom="0.50333333"
     inkscape:cx="500"
     inkscape:cy="300"
     inkscape:window-x="0"
     inkscape:window-y="0"
     inkscape:window-maximized="0"
     inkscape:current-layer="Flag_of_the_United_Kingdom_3-5" />
  <defs
     id="defs3">
    <clipPath
       id="border">
      <rect
         x="-11.25"
         y="-7.5"
         width="22.5"
         height="15"
         id="rect6" />
    </clipPath>
  </defs>
  <g
     clip-path="url(#border)"
     id="g8"
     transform="translate(-1.25,0)">
    <circle
       r="15"
       id="circle10"
       d="M 15,0 C 15,8.2842712 8.2842712,15 0,15 -8.2842712,15 -15,8.2842712 -15,0 c 0,-8.2842712 6.7157288,-15 15,-15 8.2842712,0 15,6.7157288 15,15 z"
       cx="0"
       cy="0"
       sodipodi:cx="0"
       sodipodi:cy="0"
       sodipodi:rx="15"
       sodipodi:ry="15"
       style="fill:#00247d" />
    <path
       d="m -25,-15 50,30 m -50,0 50,-30"
       id="diags_white"
       inkscape:connector-curvature="0"
       style="stroke:#ffffff;stroke-width:3" />
    <path
       d="m -25,-15 50,30 m -50,0 50,-30"
       id="diags_red"
       inkscape:connector-curvature="0"
       style="stroke:#cf142b;stroke-width:2" />
    <path
       d="M 0,0 25,15 23,15 -2,0 m 2,0 25,-15 2,0 L 2,0 M 0,0 -25,15 -27,15 -2,0 m 2,0 -25,-15 2,0 25,15"
       id="eraser_white"
       inkscape:connector-curvature="0"
       style="fill:#ffffff;stroke:none" />
    <comment
       id="comment15">I think the above two lines give the simplest way to make the diagonals</comment>
    <path
       d="M -25,0 25,0 M 0,-15 0,15"
       id="cross_white"
       inkscape:connector-curvature="0"
       style="stroke:#ffffff;stroke-width:5" />
    <path
       d="M -25,0 25,0 M 0,-15 0,15"
       id="cross_red"
       inkscape:connector-curvature="0"
       style="stroke:#cf142b;stroke-width:3" />
  </g>
</svg>
