<?xml version="1.0" standalone="no"?>
<!DOCTYPE svg>
<svg version="1.1" baseProfile="full" xmlns:ev="http://www.w3.org/2001/xml-events" xmlns:xlink="http://www.w3.org/1999/xlink" xmlns="http://www.w3.org/2000/svg" preserveAspectRatio="xMidYMid meet" zoomAndPan="magnify"
   id="Flag_of_the_United_Kingdom_3-5"
   viewBox="-12.5 -7.5 25 15"
   width="1000" height="600">

  <defs>
    <clipPath id="border">
      <rect x="-12.5" y="-7.5" width="25" height="15"/>
    </clipPath>
  </defs>

  <g clip-path="url(#border)">
    <circle r="15" fill="#00247D"/>
    <path d="M -25,-15 L 25,15 M -25,15 L 25,-15" stroke-width="3" stroke="white" id="diags_white"/>
    <path d="M -25,-15 L 25,15 M -25,15 L 25,-15" stroke-width="2" stroke="#CF142B" id="diags_red"/>
    <path stroke="none" fill="white" d="M 0,0 l 25,15 h -2 l -25,-15 M 0,0 l 25,-15 h 2 l -25,15 M 0,0 l -25,15 h -2 l 25,-15 M 0,0 l -25,-15 h 2 l 25,15" id="eraser_white"/>
<comment>I think the above two lines give the simplest way to make the diagonals</comment>
    <path d="M -25,0 H 25 M 0,-15 V 15" stroke-width="5" stroke="white" id="cross_white"/>
    <path d="M -25,0 H 25 M 0,-15 V 15" stroke-width="3" stroke="#CF142B" id="cross_red"/>
  </g>
</svg>
